<mxfile host="app.diagrams.net" agent="Mozilla/5.0 (Windows NT 10.0; Win64; x64) AppleWebKit/537.36 (KHTML, like Gecko) Chrome/137.0.0.0 Safari/537.36" version="27.2.0">
  <diagram name="Page-1" id="IN6J1VGvckM0TpViTXc1">
    <mxGraphModel dx="768" dy="787" grid="1" gridSize="10" guides="1" tooltips="1" connect="1" arrows="1" fold="1" page="1" pageScale="1" pageWidth="850" pageHeight="1100" math="0" shadow="0">
      <root>
        <mxCell id="0" />
        <mxCell id="1" parent="0" />
        <mxCell id="eJm85U5pvs9mTVYXX_-L-7" value="" style="rounded=0;whiteSpace=wrap;html=1;fillColor=#dae8fc;strokeColor=#6c8ebf;opacity=50;" parent="1" vertex="1">
          <mxGeometry x="220" y="320" width="530" height="320" as="geometry" />
        </mxCell>
        <mxCell id="eJm85U5pvs9mTVYXX_-L-4" value="" style="rounded=0;whiteSpace=wrap;html=1;fillColor=#d5e8d4;strokeColor=#82b366;opacity=50;" parent="1" vertex="1">
          <mxGeometry x="510" y="370" width="200" height="220" as="geometry" />
        </mxCell>
        <mxCell id="eJm85U5pvs9mTVYXX_-L-1" value="Detection Model" style="rounded=0;whiteSpace=wrap;html=1;fillColor=#fff2cc;strokeColor=#d6b656;" parent="1" vertex="1">
          <mxGeometry x="550" y="420" width="120" height="60" as="geometry" />
        </mxCell>
        <mxCell id="eJm85U5pvs9mTVYXX_-L-3" value="OCR Model" style="rounded=0;whiteSpace=wrap;html=1;fillColor=#fff2cc;strokeColor=#d6b656;" parent="1" vertex="1">
          <mxGeometry x="550" y="500" width="120" height="60" as="geometry" />
        </mxCell>
        <mxCell id="eJm85U5pvs9mTVYXX_-L-5" value="Model Inference Service" style="text;html=1;align=center;verticalAlign=middle;whiteSpace=wrap;rounded=0;" parent="1" vertex="1">
          <mxGeometry x="555" y="380" width="110" height="30" as="geometry" />
        </mxCell>
        <mxCell id="eJm85U5pvs9mTVYXX_-L-6" value="API Service" style="rounded=0;whiteSpace=wrap;html=1;fillColor=#e1d5e7;strokeColor=#9673a6;" parent="1" vertex="1">
          <mxGeometry x="305" y="460" width="120" height="60" as="geometry" />
        </mxCell>
        <mxCell id="eJm85U5pvs9mTVYXX_-L-8" value="" style="endArrow=classic;startArrow=classic;html=1;rounded=0;exitX=1;exitY=0.5;exitDx=0;exitDy=0;" parent="1" source="eJm85U5pvs9mTVYXX_-L-6" edge="1">
          <mxGeometry width="50" height="50" relative="1" as="geometry">
            <mxPoint x="400" y="590" as="sourcePoint" />
            <mxPoint x="510" y="490" as="targetPoint" />
          </mxGeometry>
        </mxCell>
        <mxCell id="eJm85U5pvs9mTVYXX_-L-9" value="Images" style="text;html=1;align=center;verticalAlign=middle;whiteSpace=wrap;rounded=0;" parent="1" vertex="1">
          <mxGeometry x="440" y="460" width="60" height="30" as="geometry" />
        </mxCell>
        <mxCell id="eJm85U5pvs9mTVYXX_-L-13" value="Results" style="text;html=1;align=center;verticalAlign=middle;whiteSpace=wrap;rounded=0;" parent="1" vertex="1">
          <mxGeometry x="440" y="500" width="60" height="30" as="geometry" />
        </mxCell>
        <mxCell id="vC3DFmULh5MKlHq0m3bE-1" value="VIROC: Vehicle Identification OCR" style="text;html=1;align=center;verticalAlign=middle;whiteSpace=wrap;rounded=0;" vertex="1" parent="1">
          <mxGeometry x="380" y="320" width="230" height="30" as="geometry" />
        </mxCell>
        <mxCell id="vC3DFmULh5MKlHq0m3bE-2" value="Client" style="shape=umlActor;verticalLabelPosition=bottom;verticalAlign=top;html=1;outlineConnect=0;" vertex="1" parent="1">
          <mxGeometry x="160" y="460" width="30" height="60" as="geometry" />
        </mxCell>
        <mxCell id="vC3DFmULh5MKlHq0m3bE-3" value="" style="endArrow=classic;startArrow=classic;html=1;rounded=0;entryX=0;entryY=0.5;entryDx=0;entryDy=0;" edge="1" parent="1" source="vC3DFmULh5MKlHq0m3bE-2" target="eJm85U5pvs9mTVYXX_-L-6">
          <mxGeometry width="50" height="50" relative="1" as="geometry">
            <mxPoint x="210" y="490" as="sourcePoint" />
            <mxPoint x="500" y="380" as="targetPoint" />
          </mxGeometry>
        </mxCell>
        <mxCell id="vC3DFmULh5MKlHq0m3bE-5" value="ID Request" style="text;html=1;align=center;verticalAlign=middle;whiteSpace=wrap;rounded=0;" vertex="1" parent="1">
          <mxGeometry x="230" y="450" width="60" height="30" as="geometry" />
        </mxCell>
        <mxCell id="vC3DFmULh5MKlHq0m3bE-7" value="ID Response" style="text;html=1;align=center;verticalAlign=middle;whiteSpace=wrap;rounded=0;" vertex="1" parent="1">
          <mxGeometry x="230" y="500" width="60" height="30" as="geometry" />
        </mxCell>
      </root>
    </mxGraphModel>
  </diagram>
</mxfile>
